<?xml version="1.0" encoding="UTF-8"?>
<svg id="Ebene_2" data-name="Ebene 2" xmlns="http://www.w3.org/2000/svg" viewBox="0 0 280.43 68.16">
  <defs>
    <style>
      .cls-1 {
        fill: #9a1915;
      }

      .cls-2 {
        fill: #fff;
        stroke: #9a1915;
        stroke-miterlimit: 10;
      }
    </style>
  </defs>
  <g id="Ebene_1-2" data-name="Ebene 1">
    <g>
      <rect class="cls-1" width="280.43" height="34.39"/>
      <g>
        <path class="cls-2" d="M29.08,48.6l-4.42-25.88-4.23,25.88h-5.57L8.45,5.87h6.41l3.2,25.56,4.04-25.56h5.32l4.23,25.56,3.27-25.56h6.21l-6.47,42.73h-5.57Z"/>
        <path class="cls-2" d="M63.29,11.83h-11.02v11.66h7.94v5.96h-7.94v13.2h11.02v5.96h-17.42V5.87h17.42v5.96Z"/>
        <path class="cls-2" d="M74.57,48.6h-6.41V5.87h6.41v42.73Z"/>
        <path class="cls-2" d="M95.51,48.6l-9.29-26.39v26.39h-5.96V5.87h6.47l8.78,25.37V5.87h5.96v42.73h-5.96Z"/>
        <path class="cls-2" d="M127.09,48.6h-3.14l-1.22-3.4c-1.79,2.95-3.59,4.04-6.73,4.04s-5.64-1.35-7.05-3.65c-1.41-2.43-1.92-5.32-1.92-10.63v-14.93c0-6.66.45-8.84,2.56-11.4,1.73-2.18,4.48-3.39,7.49-3.39,4.74,0,8.39,2.75,9.55,7.24.38,1.54.45,2.24.45,7.37h-6.47c0-2.56-.06-4.23-.13-5.19-.26-2.05-1.6-3.4-3.46-3.4-1.6,0-2.82,1.03-3.27,2.82-.19.77-.32,3.01-.32,6.41v13.52c0,3.2.19,5.96.45,6.79.45,1.54,1.66,2.43,3.2,2.43s2.88-1.03,3.27-2.75c.19-.9.32-2.95.32-6.47v-1.73h-3.91v-5.32h10.31v21.65Z"/>
        <path class="cls-2" d="M150.22,11.83h-11.02v11.66h7.94v5.96h-7.94v13.2h11.02v5.96h-17.42V5.87h17.42v5.96Z"/>
        <path class="cls-2" d="M170.34,48.6l-9.29-26.39v26.39h-5.96V5.87h6.47l8.78,25.37V5.87h5.96v42.73h-5.96Z"/>
        <path class="cls-2" d="M199.42,11.83h-11.02v11.66h7.94v5.96h-7.94v13.2h11.02v5.96h-17.42V5.87h17.42v5.96Z"/>
        <path class="cls-2" d="M210.7,48.6h-6.41V5.87h8.97c7.43,0,10.7,3.84,10.7,12.36,0,5.51-1.15,8.46-4.29,10.76l4.93,19.6h-6.79l-4.04-17.87h-3.07v17.87ZM212.75,24.77c2.18,0,3.01-.32,3.72-1.35.64-1.02,1.09-2.95,1.09-5.12,0-2.31-.45-4.36-1.28-5.32-.64-.9-1.47-1.15-3.52-1.15h-2.05v12.94h2.05Z"/>
        <path class="cls-2" d="M236.77,39.18l-1.47,9.42h-6.34l6.98-42.73h8.33l7.43,42.73h-6.6l-1.47-9.42h-6.85ZM240.1,16.18l-2.44,17.04h5l-2.56-17.04Z"/>
        <path class="cls-2" d="M273.1,48.6h-17.04V5.87h6.41v36.77h10.63v5.96Z"/>
      </g>
      <g>
        <path class="cls-1" d="M115.9,53.45h3.02c2.39,0,3.61,1.26,3.61,3.76,0,1.52-.44,2.48-1.52,3.24,1.26.63,1.78,1.69,1.78,3.61,0,1.46-.35,2.5-1.06,3.17-.59.54-1.2.72-2.61.72h-3.22v-14.49ZM118.53,59.45c.67,0,.98-.09,1.28-.37.39-.37.59-.96.59-1.78,0-1.24-.48-1.83-1.5-1.83h-.83v3.98h.46ZM118.87,65.93c1.22,0,1.74-.61,1.74-2.11,0-.93-.24-1.65-.7-2.02-.28-.24-.63-.33-1.3-.33h-.54v4.45h.8Z"/>
        <path class="cls-1" d="M128.6,67.95h-2.17v-5.87l-2.72-8.63h2.26l1.54,5.69,1.5-5.69h2.19l-2.61,8.63v5.87Z"/>
        <path class="cls-1" d="M143.07,67.95h-1.07l-.41-1.15c-.61,1-1.22,1.37-2.28,1.37s-1.91-.46-2.39-1.24c-.48-.83-.65-1.8-.65-3.61v-5.06c0-2.26.15-3,.87-3.87.59-.74,1.52-1.15,2.54-1.15,1.61,0,2.85.93,3.24,2.46.13.52.15.76.15,2.5h-2.19c0-.87-.02-1.43-.04-1.76-.09-.7-.54-1.15-1.17-1.15-.54,0-.96.35-1.11.96-.07.26-.11,1.02-.11,2.17v4.58c0,1.09.06,2.02.15,2.3.15.52.57.83,1.09.83s.98-.35,1.11-.93c.07-.3.11-1,.11-2.19v-.59h-1.33v-1.8h3.5v7.34Z"/>
        <path class="cls-1" d="M150.91,55.47h-3.74v3.95h2.69v2.02h-2.69v4.48h3.74v2.02h-5.91v-14.49h5.91v2.02Z"/>
        <path class="cls-1" d="M157.01,57.02c-.13-1.3-.46-1.76-1.26-1.76-.74,0-1.22.56-1.22,1.43,0,1,.39,1.59,1.93,3.02,2.26,2.06,2.8,2.98,2.8,4.74,0,2.22-1.39,3.72-3.43,3.72s-3.54-1.54-3.61-3.91l2.06-.37c.06,1.52.56,2.26,1.54,2.26.8,0,1.33-.61,1.33-1.59,0-.54-.2-1.06-.56-1.56-.35-.46-.48-.61-1.7-1.72-1.82-1.69-2.48-2.85-2.48-4.45,0-2.15,1.37-3.58,3.41-3.58,1.91,0,3.02,1.17,3.28,3.48l-2.11.3Z"/>
        <path class="cls-1" d="M165.48,58.26c0-.85-.02-1.5-.04-1.85-.09-.7-.54-1.15-1.17-1.15-.56,0-.96.35-1.11.96-.07.28-.11.98-.11,2.19v4.61c0,1.39.04,2,.15,2.3.17.52.57.83,1.06.83.63,0,1.09-.48,1.15-1.22.04-.39.06-1.46.06-2.11h2.2v.83c0,1.5-.09,2.06-.5,2.82-.54,1.06-1.61,1.69-2.89,1.69-1.02,0-1.96-.41-2.54-1.15-.72-.87-.87-1.59-.87-3.85v-4.91c0-2.28.15-3,.87-3.87.59-.74,1.52-1.15,2.54-1.15,1.26,0,2.35.59,2.89,1.59.39.72.5,1.24.5,2.65v.78h-2.2Z"/>
        <path class="cls-1" d="M171.59,61.41v6.54h-2.17v-14.49h2.17v5.93h2.41v-5.93h2.17v14.49h-2.17v-6.54h-2.41Z"/>
        <path class="cls-1" d="M185.38,67.95v-10.02l-2.09,10.02h-.98l-2.2-10.02v10.02h-2.02v-14.49h2.91l1.8,8.82,1.65-8.82h2.93v14.49h-2.02Z"/>
        <path class="cls-1" d="M191.72,64.75l-.5,3.19h-2.15l2.37-14.49h2.83l2.52,14.49h-2.24l-.5-3.19h-2.33ZM192.85,56.95l-.83,5.78h1.69l-.87-5.78Z"/>
        <path class="cls-1" d="M202.74,58.26c0-.85-.02-1.5-.04-1.85-.09-.7-.54-1.15-1.17-1.15-.56,0-.96.35-1.11.96-.07.28-.11.98-.11,2.19v4.61c0,1.39.04,2,.15,2.3.17.52.57.83,1.06.83.63,0,1.09-.48,1.15-1.22.04-.39.06-1.46.06-2.11h2.2v.83c0,1.5-.09,2.06-.5,2.82-.54,1.06-1.61,1.69-2.89,1.69-1.02,0-1.96-.41-2.54-1.15-.72-.87-.87-1.59-.87-3.85v-4.91c0-2.28.15-3,.87-3.87.59-.74,1.52-1.15,2.54-1.15,1.26,0,2.35.59,2.89,1.59.39.72.5,1.24.5,2.65v.78h-2.2Z"/>
        <path class="cls-1" d="M208.84,53.45v5.8l2.56-5.8h2.28l-2.5,5.04,2.83,9.45h-2.33l-1.85-6.74-1,2v4.74h-2.17v-14.49h2.17Z"/>
        <path class="cls-1" d="M219.68,57.02c-.13-1.3-.46-1.76-1.26-1.76-.74,0-1.22.56-1.22,1.43,0,1,.39,1.59,1.93,3.02,2.26,2.06,2.8,2.98,2.8,4.74,0,2.22-1.39,3.72-3.43,3.72s-3.54-1.54-3.61-3.91l2.06-.37c.06,1.52.56,2.26,1.54,2.26.8,0,1.33-.61,1.33-1.59,0-.54-.2-1.06-.56-1.56-.35-.46-.48-.61-1.7-1.72-1.82-1.69-2.48-2.85-2.48-4.45,0-2.15,1.37-3.58,3.41-3.58,1.91,0,3.02,1.17,3.28,3.48l-2.11.3Z"/>
        <path class="cls-1" d="M223.43,53.45h3.09c2.5,0,3.67,1.3,3.67,4.08v6.32c0,2.78-1.17,4.08-3.67,4.08h-3.09v-14.49ZM226.28,65.93c.61,0,1.09-.2,1.37-.57.28-.39.37-.83.37-1.91v-5.5c0-1.09-.09-1.52-.37-1.91-.28-.37-.76-.56-1.37-.56h-.67v10.45h.67Z"/>
        <path class="cls-1" d="M237.99,55.47h-3.74v3.95h2.69v2.02h-2.69v4.48h3.74v2.02h-5.91v-14.49h5.91v2.02Z"/>
        <path class="cls-1" d="M244.09,57.02c-.13-1.3-.46-1.76-1.26-1.76-.74,0-1.22.56-1.22,1.43,0,1,.39,1.59,1.93,3.02,2.26,2.06,2.8,2.98,2.8,4.74,0,2.22-1.39,3.72-3.43,3.72s-3.54-1.54-3.61-3.91l2.06-.37c.07,1.52.57,2.26,1.54,2.26.8,0,1.33-.61,1.33-1.59,0-.54-.2-1.06-.57-1.56-.35-.46-.48-.61-1.69-1.72-1.83-1.69-2.48-2.85-2.48-4.45,0-2.15,1.37-3.58,3.41-3.58,1.91,0,3.02,1.17,3.28,3.48l-2.11.3Z"/>
        <path class="cls-1" d="M251.87,67.95h-2.17v-12.47h-2.3v-2.02h6.82v2.02h-2.35v12.47Z"/>
        <path class="cls-1" d="M257.84,67.95h-2.17v-14.49h2.17v14.49Z"/>
        <path class="cls-1" d="M265.55,67.95h-5.78v-14.49h2.17v12.47h3.61v2.02Z"/>
        <path class="cls-1" d="M272.59,67.95h-5.78v-14.49h2.17v12.47h3.61v2.02Z"/>
        <path class="cls-1" d="M279.76,55.47h-3.74v3.95h2.69v2.02h-2.69v4.48h3.74v2.02h-5.91v-14.49h5.91v2.02Z"/>
      </g>
    </g>
  </g>
</svg>